<svg viewBox="0 0 256 256" xmlns="http://www.w3.org/2000/svg"><path fill="none" d="M0 0h256v256H0z"></path><path d="M176 80h42.6a7.9 7.9 0 0 1 7.4 5l14 35M16 144h160" fill="none" stroke="#ff4b58" stroke-linecap="round" stroke-linejoin="round" stroke-width="8" class="stroke-000000"></path><circle cx="188" cy="192" fill="none" r="24" stroke="#ff4b58" stroke-linecap="round" stroke-linejoin="round" stroke-width="8" class="stroke-000000"></circle><circle cx="68" cy="192" fill="none" r="24" stroke="#ff4b58" stroke-linecap="round" stroke-linejoin="round" stroke-width="8" class="stroke-000000"></circle><path fill="none" stroke="#ff4b58" stroke-linecap="round" stroke-linejoin="round" stroke-width="8" d="M164 192H92M44 192H24a8 8 0 0 1-8-8V72a8 8 0 0 1 8-8h152v107.2M176 120h64v64a8 8 0 0 1-8 8h-20" class="stroke-000000"></path></svg>